# xmcd
#
# Track frame offsets:
#	187
#	13542
#	23849
#	34112
#	48654
#	65699
#	80564
#
# Disc length: 1288 seconds
#
# Revision: 0
# Processed by: cddbd v1.4PL0 Copyright (c) Steve Scherf et al.
# Submitted via: audiograbber 1.81.02
#
DISCID=55050607
DTITLE=Nelson, Willie - Sweet Memories
DYEAR=1994
DGENRE=Country
TTITLE0=Help Me Make It Throught The Night
TTITLE1=December Day
TTITLE2=Buddy
TTITLE3=Sweet Memories
TTITLE4=Wake Me When It's Over
TTITLE5=Little Things
TTITLE6=Will You Remember
EXTD=
EXTT0=
EXTT1=
EXTT2=
EXTT3=
EXTT4=
EXTT5=
EXTT6=
PLAYORDER=
